<svg id="Layer_1" data-name="Layer 1" xmlns="http://www.w3.org/2000/svg" viewBox="0 0 133.36 133.36"><title>dashboard_status_signal</title>
<path style="fill:#12C700" d="M85,151.68A66.68,66.68,0,1,1,151.68,85,66.76,66.76,0,0,1,85,151.68ZM85,24.46A60.54,60.54,0,1,0,145.54,85,60.61,60.61,0,0,0,85,24.46Z" transform="translate(-18.32 -18.32)"/>
<path style="fill:#12C700" d="M100.89,92.5a12.47,12.47,0,0,0-10.48,5.7L71,88.48a12.33,12.33,0,0,0,0-8.61l19.44-9.72a12.5,12.5,0,1,0-1.24-2.49L69.71,77.39a12.49,12.49,0,1,0,0,13.56l19.47,9.73a12.49,12.49,0,1,0,11.72-8.19Z" transform="translate(-18.32 -18.32)"/></svg>