<svg id="Layer_1" data-name="Layer 1" xmlns="http://www.w3.org/2000/svg" viewBox="0 0 133.36 133.36"><title>dashboard_status_server</title>
<path style="fill:#ff0000" d="M85,151.68A66.68,66.68,0,1,1,151.68,85,66.76,66.76,0,0,1,85,151.68ZM85,24.46A60.54,60.54,0,1,0,145.54,85,60.61,60.61,0,0,0,85,24.46Z" transform="translate(-18.32 -18.32)"/>
<path style="fill:#ff0000" d="M54.06,97.95v18a2.58,2.58,0,0,0,2.58,2.58h56.72a2.58,2.58,0,0,0,2.58-2.58v-18Zm18,10.31H67a2.58,2.58,0,1,1,0-5.16h5.16a2.58,2.58,0,0,1,0,5.16Zm15.47,0H82.42a2.58,2.58,0,1,1,0-5.16h5.16a2.58,2.58,0,1,1,0,5.16Z" transform="translate(-18.32 -18.32)"/>
<path style="fill:#ff0000" d="M54.06,77.32V92.79h61.87V77.32Zm18,10.31H67a2.58,2.58,0,1,1,0-5.16h5.16a2.58,2.58,0,0,1,0,5.16Zm15.47,0H82.42a2.58,2.58,0,1,1,0-5.16h5.16a2.58,2.58,0,1,1,0,5.16Z" transform="translate(-18.32 -18.32)"/>
<path style="fill:#ff0000" d="M115.94,72.17v-18a2.58,2.58,0,0,0-2.58-2.58H56.64a2.58,2.58,0,0,0-2.58,2.58v18ZM82.42,61.86h5.16a2.58,2.58,0,1,1,0,5.16H82.42a2.58,2.58,0,1,1,0-5.16ZM67,61.86h5.16a2.58,2.58,0,0,1,0,5.16H67a2.58,2.58,0,1,1,0-5.16Z" transform="translate(-18.32 -18.32)"/></svg>