<svg id="Layer_1" data-name="Layer 1" xmlns="http://www.w3.org/2000/svg" viewBox="0 0 133.36 133.36"><title>dashboard_status_dish</title>
<path style="fill:#ff0000" d="M85,151.68A66.68,66.68,0,1,1,151.68,85,66.76,66.76,0,0,1,85,151.68ZM85,24.46A60.54,60.54,0,1,0,145.54,85,60.61,60.61,0,0,0,85,24.46Z" transform="translate(-18.32 -18.32)"/>
<path style="fill:#ff0000" d="M118.65,95.24,107.89,84.48V71.9a7,7,0,1,0-9.18-9.18H86.13L75.36,52a1.4,1.4,0,0,0-2,0,31.91,31.91,0,0,0-2.21,42.82l-18.8,21.49a1.4,1.4,0,0,0,1.05,2.32h39.1a1.4,1.4,0,0,0,1.05-2.32L82.49,103.58a31.82,31.82,0,0,0,36.16-6.36A1.4,1.4,0,0,0,118.65,95.24ZM88.92,65.51h9.2a6.94,6.94,0,0,0,1.16,3.84L96,72.61ZM105.1,81.69,98,74.59l3.26-3.26a6.93,6.93,0,0,0,3.85,1.16Z" transform="translate(-18.32 -18.32)"/></svg>