<svg id="Layer_1" data-name="Layer 1" xmlns="http://www.w3.org/2000/svg" viewBox="0 0 133.36 133.36"><title>dashboard_status_sat</title>
<path style="fill:#12C700" d="M72.68,104.22a17.27,17.27,0,0,0-5.1,12.3,1.93,1.93,0,0,0,1.93,1.93h30.94a1.93,1.93,0,0,0,1.93-1.93,17.4,17.4,0,0,0-29.71-12.31Z" transform="translate(-18.32 -18.32)"/>
<path style="fill:#12C700" d="M135.3,70.57l-30.94,0a1.94,1.94,0,0,0-1.93,1.93v5.8h-3.9V64.35a13.09,13.09,0,0,0-11.59-12.8H83.05a13.26,13.26,0,0,0-7.77,3.63,12.92,12.92,0,0,0-3.83,9.18v13.9H67.58v-5.8a1.94,1.94,0,0,0-1.93-1.93l-30.94,0a1.92,1.92,0,0,0-1.93,1.93l0,15.43a1.92,1.92,0,0,0,1.93,1.93H65.66a1.94,1.94,0,0,0,1.93-1.93v-5.8h3.87V94.29a1.93,1.93,0,0,0,1.93,1.93h23.2a1.93,1.93,0,0,0,1.93-1.93V82.12h3.89v5.8a1.94,1.94,0,0,0,1.93,1.93h30.94a1.92,1.92,0,0,0,1.93-1.93l0-15.43A1.92,1.92,0,0,0,135.3,70.57Z" transform="translate(-18.32 -18.32)"/>
<path style="fill:#12C700" d="M85,151.68A66.68,66.68,0,1,1,151.68,85,66.76,66.76,0,0,1,85,151.68ZM85,24.46A60.54,60.54,0,1,0,145.54,85,60.61,60.61,0,0,0,85,24.46Z" transform="translate(-18.32 -18.32)"/></svg>