<?xml version="1.0" encoding="UTF-8" standalone="no"?>
<svg
   xmlns:dc="http://purl.org/dc/elements/1.1/"
   xmlns:cc="http://creativecommons.org/ns#"
   xmlns:rdf="http://www.w3.org/1999/02/22-rdf-syntax-ns#"
   xmlns:svg="http://www.w3.org/2000/svg"
   xmlns="http://www.w3.org/2000/svg"
   viewBox="0 0 196.88933 196.88933"
   height="196.88933"
   width="196.88933"
   xml:space="preserve"
   id="svg2"
   version="1.1"><metadata
     id="metadata8"><rdf:RDF><cc:Work
         rdf:about=""><dc:format>image/svg+xml</dc:format><dc:type
           rdf:resource="http://purl.org/dc/dcmitype/StillImage" /></cc:Work></rdf:RDF></metadata><defs
     id="defs6"><clipPath
       id="clipPath22"
       clipPathUnits="userSpaceOnUse"><path
         id="path20"
         d="m 108.312,127.155 -0.802,0.802 H 98.629 L 48.856,44.333 39.355,28.37 40.958,20.512 41.921,19.71 h 7.268 l 10.792,18.132 48.331,81.455 z" /></clipPath><linearGradient
       id="linearGradient32"
       spreadMethod="pad"
       gradientTransform="matrix(68.957138,0,0,-68.957138,39.354763,73.833336)"
       gradientUnits="userSpaceOnUse"
       y2="0"
       x2="1"
       y1="0"
       x1="0"><stop
         id="stop28"
         offset="0"
         style="stop-opacity:1;stop-color:#06def4" /><stop
         id="stop30"
         offset="1"
         style="stop-opacity:1;stop-color:#125790" /></linearGradient></defs><g
     transform="matrix(1.3333333,0,0,-1.3333333,0,196.88933)"
     id="g10"><g
       transform="translate(107.1888,19.71)"
       id="g12"><path
         id="path14"
         style="fill:#020613;fill-opacity:1;fill-rule:nonzero;stroke:none"
         d="M 0,0 0.803,0.802 V 12.027 L 0,12.829 H -43.385 L -51.021,0 Z" /></g><g
       id="g16"><g
         clip-path="url(#clipPath22)"
         id="g18"><g
           id="g24"><g
             id="g26"><path
               id="path34"
               style="fill:url(#linearGradient32);stroke:none"
               d="m 108.312,127.155 -0.802,0.802 H 98.629 L 48.856,44.333 39.355,28.37 40.958,20.512 41.921,19.71 h 7.268 l 10.792,18.132 48.331,81.455 z" /></g></g></g></g><g
       transform="translate(43.845,127.9565)"
       id="g36"><path
         id="path38"
         style="fill:#020613;fill-opacity:1;fill-rule:nonzero;stroke:none"
         d="m 0,0 -0.962,-0.802 -1.604,-11.225 0.642,-0.802 H 40.169 L 47.805,0 Z" /></g></g></svg>