<?xml version="1.0" encoding="utf-8"?>
<!-- Generator: Adobe Illustrator 19.2.1, SVG Export Plug-In . SVG Version: 6.00 Build 0)  -->
<svg version="1.1" id="Layer_1" xmlns="http://www.w3.org/2000/svg" xmlns:xlink="http://www.w3.org/1999/xlink" x="0px" y="0px"
	 viewBox="0 0 360 360" style="enable-background:new 0 0 360 360;" xml:space="preserve">
<style type="text/css">
	.st0{fill:none;stroke:#000000;stroke-width:3.5933;stroke-linecap:round;stroke-linejoin:round;stroke-miterlimit:10;}
	.st1{fill:none;stroke:#000000;stroke-width:4.1449;stroke-linecap:round;stroke-linejoin:round;stroke-miterlimit:10;}
	.st2{fill:none;stroke:#000000;stroke-width:4.9414;stroke-linecap:round;stroke-linejoin:round;stroke-miterlimit:10;}
	.st3{fill:none;stroke:#000000;stroke-width:4.5193;stroke-linecap:round;stroke-linejoin:round;stroke-miterlimit:10;}
	.st4{fill:none;stroke:#000000;stroke-width:4.7691;stroke-linecap:round;stroke-linejoin:round;stroke-miterlimit:10;}
	.st5{fill:none;stroke:#000000;stroke-width:5.5583;stroke-linecap:round;stroke-linejoin:round;stroke-miterlimit:10;}
</style>
<g>
	<path d="M149.3,135.6h-69c-1.2,0-2.3,1-2.3,2.3v27.7c0,1.2,1,2.3,2.3,2.3h69c1.2,0,2.3-1,2.3-2.3v-27.7
		C151.6,136.7,150.6,135.6,149.3,135.6z"/>
	<path d="M161.7,195.6h2.1v2.8c0,1.2,1,2.3,2.3,2.3h27.9c1.2,0,2.3-1,2.3-2.3v-2.8h2.1c1.2,0,2.3-1,2.3-2.3v-64.1
		c0-1.2-1-2.3-2.3-2.3h-2.1v-0.2c0-1.2-1-2.3-2.3-2.3h-27.9c-1.2,0-2.3,1-2.3,2.3v0.2h-2.1c-1.2,0-2.3,1-2.3,2.3v64.1
		C159.4,194.6,160.4,195.6,161.7,195.6z"/>
	<path d="M155.7,226.3h48.6c0.3,0,0.6-0.2,0.7-0.4s0.2-0.6,0-0.8l-3.7-7.6c-5.3-10.7-13.4-11.6-21.3-11.6s-16,0.9-21.3,11.6
		l-3.7,7.6c-0.1,0.3-0.1,0.6,0,0.8S155.4,226.3,155.7,226.3z"/>
	<path d="M149.3,171.6h-69c-1.2,0-2.3,1-2.3,2.3v27.7c0,1.2,1,2.3,2.3,2.3h69c1.2,0,2.3-1,2.3-2.3v-27.7
		C151.6,172.6,150.6,171.6,149.3,171.6z"/>
	<path d="M279.6,135.6h-69c-1.2,0-2.3,1-2.3,2.3v27.7c0,1.2,1,2.3,2.3,2.3h69c1.2,0,2.3-1,2.3-2.3v-27.7
		C281.9,136.7,280.9,135.6,279.6,135.6z"/>
	<path d="M279.6,171.6h-69c-1.2,0-2.3,1-2.3,2.3v27.7c0,1.2,1,2.3,2.3,2.3h69c1.2,0,2.3-1,2.3-2.3v-27.7
		C281.9,172.6,280.9,171.6,279.6,171.6z"/>
	<path d="M204.3,232.2h-48.6c-0.9,0-1.7,0.8-1.7,1.7v2.6c0,0.9,0.8,1.7,1.7,1.7h16.9l3.6,9.3v3.6c0,2.1,1.7,3.8,3.8,3.8
		s3.8-1.7,3.8-3.8v-3.6l3.6-9.3h16.9c0.9,0,1.7-0.8,1.7-1.7v-2.6C206,233,205.2,232.2,204.3,232.2z"/>
</g>
</svg>
