<?xml version="1.0" encoding="utf-8"?>
<!DOCTYPE svg PUBLIC "-//W3C//DTD SVG 1.1//EN" "http://www.w3.org/Graphics/SVG/1.1/DTD/svg11.dtd" [
	<!ENTITY ns_extend "http://ns.adobe.com/Extensibility/1.0/">
	<!ENTITY ns_ai "http://ns.adobe.com/AdobeIllustrator/10.0/">
	<!ENTITY ns_graphs "http://ns.adobe.com/Graphs/1.0/">
	<!ENTITY ns_vars "http://ns.adobe.com/Variables/1.0/">
	<!ENTITY ns_imrep "http://ns.adobe.com/ImageReplacement/1.0/">
	<!ENTITY ns_sfw "http://ns.adobe.com/SaveForWeb/1.0/">
	<!ENTITY ns_custom "http://ns.adobe.com/GenericCustomNamespace/1.0/">
	<!ENTITY ns_adobe_xpath "http://ns.adobe.com/XPath/1.0/">
]>
<svg version="1.1" id="Layer_1" xmlns:x="&ns_extend;" xmlns:i="&ns_ai;" xmlns:graph="&ns_graphs;"
	 xmlns="http://www.w3.org/2000/svg" xmlns:xlink="http://www.w3.org/1999/xlink" x="0px" y="0px" viewBox="0 0 518.6 129.5"
	 style="enable-background:new 0 0 518.6 129.5;" xml:space="preserve">
<style type="text/css">
	.st0{fill:url(#SVGID_1_);}
	.st1{fill:#020613;}
</style>
<polygon points="381.8,37.5 361.3,95.6 361.6,96.1 369.2,96.1 369.6,95.6 385.6,48.4 			"/>
<polygon points="392.1,32.8 391.5,32.5 384.9,33.4 405.9,95.6 406.4,96.1 413.9,96.1 414.2,95.6 			"/>
<path d="M116.3,34l0.5-0.6l6.9-0.9l0.5,0.4v40.6c0,11.1,7.2,16.3,16.5,16.3c9.8,0,16.5-5.1,16.5-16.3V34l0.5-0.6l6.9-0.9l0.5,0.4
	v41.5c0,15-9.2,22.9-24.4,22.9c-14.9,0-24.4-7.8-24.4-22.9V34z"/>
<path d="M191.2,34l0.5-0.6l6.9-0.9l0.5,0.4v62.8l-0.5,0.5h-6.9l-0.5-0.5V34z"/>
<path d="M225.8,34l0.5-0.6l6.9-0.9l0.7,0.4l30.3,45.6l2.4,4.5V34l0.5-0.6l6.9-0.9l0.5,0.4v62.8l-0.5,0.5h-6.6l-0.7-0.5l-30.5-46
	l-2.4-4.5v50.4l-0.5,0.5h-6.9l-0.5-0.5V34z"/>
<linearGradient id="SVGID_1_" gradientUnits="userSpaceOnUse" x1="88.7987" y1="99.1167" x2="70.5462" y2="76.2116">
	<stop  offset="0" style="stop-color:#06DEF4"/>
	<stop  offset="1" style="stop-color:#125790"/>
</linearGradient>
<path class="st0" d="M84.3,99.1L66.6,77.5c0.3-0.4,0.4-0.5,0.7-0.9H75c0.2,0.2,0.4,0.3,0.7,0.5l18,22.1l-0.3,0.5h-8.5L84.3,99.1z
	"/>
<path d="M71,89.5c-1.1,0.1-2.1,0.2-3.3,0.2c-9.5,0-16.5-5.1-16.5-16.2V56c0-10.8,7-16.3,16.5-16.3c9.5,0,16.5,5.5,16.5,16.3v17.5
	c0,2.3-0.3,4.3-0.9,6.1l5.9,7.2c1.9-3.3,3-7.5,3-12.4v-19c0-15.1-9.9-23.1-24.5-23.1c-14.6,0-24.5,8-24.5,23.1v19
	c0,15,9.9,22.8,24.5,22.8c3.1,0,6-0.4,8.7-1.1L71,89.5z"/>
<path d="M457.5,69.2c5.3-1.3,14.5-5.3,14.5-17.6c0-7.5-3.2-12.4-7.8-15.3c-3.9-2.4-8.8-3.3-13.7-3.3h-16.6l-0.5,0.5v62.1l0.5,0.5
	h6.9l0.5-0.5V40.2h9.2c6.8,0,13.7,2.9,13.7,11.4c0,8.7-6.9,11.3-13.7,11.3h-5.7c-0.2,0.4-0.3,0.5-0.5,0.9l4.2,6.2l17.6,25.8
	l0.4,0.3h8.5l0.5-0.5L457.5,69.2z"/>
<path class="st1" d="M319.7,33.3h-18.4l-0.5,0.5v6.5c0.2,0.2,0.3,0.3,0.5,0.5h18.4c9.5,0,16.5,5.5,16.5,16.3v15.5
	c0,11.1-7,16.2-16.5,16.2h-18.4c-0.2,0.2-0.3,0.3-0.5,0.5v6.5l0.5,0.5h18.4c14.6,0,24.5-7.8,24.5-22.8v-17
	C344.2,41.3,334.3,33.3,319.7,33.3z"/>
</svg>
