<?xml version="1.0" encoding="UTF-8" standalone="no"?>
<!-- Generator: Adobe Illustrator 20.0.0, SVG Export Plug-In . SVG Version: 6.00 Build 0)  -->

<svg
   xmlns:dc="http://purl.org/dc/elements/1.1/"
   xmlns:cc="http://creativecommons.org/ns#"
   xmlns:rdf="http://www.w3.org/1999/02/22-rdf-syntax-ns#"
   xmlns:svg="http://www.w3.org/2000/svg"
   xmlns="http://www.w3.org/2000/svg"
   xmlns:sodipodi="http://sodipodi.sourceforge.net/DTD/sodipodi-0.dtd"
   xmlns:inkscape="http://www.inkscape.org/namespaces/inkscape"
   version="1.1"
   id="Layer_1"
   x="0px"
   y="0px"
   viewBox="0 0 432.30001 67.400002"
   xml:space="preserve"
   inkscape:version="0.91 r13725"
   sodipodi:docname="quindar_white.svg"
   width="432.29999"
   height="67.400002"><metadata
     id="metadata3366"><rdf:RDF><cc:Work
         rdf:about=""><dc:format>image/svg+xml</dc:format><dc:type
           rdf:resource="http://purl.org/dc/dcmitype/StillImage" /><dc:title></dc:title></cc:Work></rdf:RDF></metadata><defs
     id="defs3364" /><sodipodi:namedview
     pagecolor="#ffffff"
     bordercolor="#666666"
     borderopacity="1"
     objecttolerance="10"
     gridtolerance="10"
     guidetolerance="10"
     inkscape:pageopacity="0"
     inkscape:pageshadow="2"
     inkscape:window-width="2560"
     inkscape:window-height="1417"
     id="namedview3362"
     showgrid="false"
     fit-margin-top="0"
     fit-margin-left="0"
     fit-margin-right="0"
     fit-margin-bottom="0"
     inkscape:zoom="4.0609335"
     inkscape:cx="216.09999"
     inkscape:cy="34.95"
     inkscape:window-x="1528"
     inkscape:window-y="-8"
     inkscape:window-maximized="1"
     inkscape:current-layer="Layer_1" /><style
     type="text/css"
     id="style3337">
	.st0{fill:#FFFFFF;}
	.st1{fill:url(#SVGID_1_);}
</style><polygon
     class="st0"
     points="369.2,96.1 369.6,95.6 385.6,48.4 381.8,37.5 361.3,95.6 361.6,96.1 "
     id="polygon3339"
     style="fill:#ffffff"
     transform="translate(-43.2,-32.3)" /><polygon
     class="st0"
     points="405.9,95.6 406.4,96.1 413.9,96.1 414.2,95.6 392.1,32.8 391.5,32.5 384.9,33.4 "
     id="polygon3341"
     style="fill:#ffffff"
     transform="translate(-43.2,-32.3)" /><path
     class="st0"
     d="m 73.1,1.7 0.5,-0.6 6.9,-0.9 0.5,0.4 0,40.6 c 0,11.1 7.2,16.3 16.5,16.3 9.8,0 16.5,-5.1 16.5,-16.3 l 0,-39.5 0.5,-0.6 6.9,-0.9 0.5,0.4 0,41.5 C 121.9,57.1 112.7,65 97.5,65 82.6,65 73.1,57.2 73.1,42.1 l 0,-40.4 z"
     id="path3343"
     inkscape:connector-curvature="0"
     style="fill:#ffffff" /><path
     class="st0"
     d="m 148,1.7 0.5,-0.6 6.9,-0.9 0.5,0.4 0,62.8 -0.5,0.5 -6.9,0 -0.5,-0.5 0,-61.7 z"
     id="path3345"
     inkscape:connector-curvature="0"
     style="fill:#ffffff" /><path
     class="st0"
     d="m 182.6,1.7 0.5,-0.6 6.9,-0.9 0.7,0.4 30.3,45.6 2.4,4.5 0,-49 0.5,-0.6 6.9,-0.9 0.5,0.4 0,62.8 -0.5,0.5 -6.6,0 -0.7,-0.5 -30.5,-46 -2.4,-4.5 0,50.4 -0.5,0.5 -6.9,0 -0.5,-0.5 0,-61.6 z"
     id="path3347"
     inkscape:connector-curvature="0"
     style="fill:#ffffff" /><linearGradient
     id="SVGID_1_"
     gradientUnits="userSpaceOnUse"
     x1="88.798698"
     y1="99.116699"
     x2="70.546204"
     y2="76.211601"
     gradientTransform="translate(-43.2,-32.3)"><stop
       offset="0"
       style="stop-color:#06DEF4"
       id="stop3350" /><stop
       offset="1"
       style="stop-color:#125790"
       id="stop3352" /></linearGradient><path
     class="st1"
     d="M 41.1,66.8 23.4,45.2 c 0.3,-0.4 0.4,-0.5 0.7,-0.9 l 7.7,0 c 0.2,0.2 0.4,0.3 0.7,0.5 l 18,22.1 -0.3,0.5 -8.5,0 -0.6,-0.6 z"
     id="path3354"
     inkscape:connector-curvature="0"
     style="fill:url(#SVGID_1_)" /><path
     class="st0"
     d="m 27.8,57.2 c -1.1,0.1 -2.1,0.2 -3.3,0.2 C 15,57.4 8,52.3 8,41.2 L 8,23.7 C 8,12.9 15,7.4 24.5,7.4 34,7.4 41,12.9 41,23.7 l 0,17.5 c 0,2.3 -0.3,4.3 -0.9,6.1 l 5.9,7.2 c 1.9,-3.3 3,-7.5 3,-12.4 l 0,-19 C 49,8 39.1,0 24.5,0 9.9,0 0,8 0,23.1 l 0,19 c 0,15 9.9,22.8 24.5,22.8 3.1,0 6,-0.4 8.7,-1.1 l -5.4,-6.6 z"
     id="path3356"
     inkscape:connector-curvature="0"
     style="fill:#ffffff" /><path
     class="st0"
     d="m 414.3,36.9 c 5.3,-1.3 14.5,-5.3 14.5,-17.6 C 428.8,11.8 425.6,6.9 421,4 417.1,1.6 412.2,0.7 407.3,0.7 l -16.6,0 -0.5,0.5 0,62.1 0.5,0.5 6.9,0 0.5,-0.5 0,-55.4 9.2,0 c 6.8,0 13.7,2.9 13.7,11.4 0,8.7 -6.9,11.3 -13.7,11.3 l -5.7,0 c -0.2,0.4 -0.3,0.5 -0.5,0.9 l 4.2,6.2 17.6,25.8 0.4,0.3 8.5,0 0.5,-0.5 -18,-26.4 z"
     id="path3358"
     inkscape:connector-curvature="0"
     style="fill:#ffffff" /><path
     class="st0"
     d="m 276.5,1 -18.4,0 -0.5,0.5 0,6.5 c 0.2,0.2 0.3,0.3 0.5,0.5 l 18.4,0 C 286,8.5 293,14 293,24.8 l 0,15.5 c 0,11.1 -7,16.2 -16.5,16.2 l -18.4,0 c -0.2,0.2 -0.3,0.3 -0.5,0.5 l 0,6.5 0.5,0.5 18.4,0 C 291.1,64 301,56.2 301,41.2 l 0,-17 C 301,9 291.1,1 276.5,1 Z"
     id="path3360"
     inkscape:connector-curvature="0"
     style="fill:#ffffff" /></svg>