<svg id="Layer_1" data-name="Layer 1" xmlns="http://www.w3.org/2000/svg" viewBox="0 0 27.01 17.3"><title>aud_sat</title><path d="M81.81,90a4.47,4.47,0,0,0-1.32,3.18.5.5,0,0,0,.5.5h8a.5.5,0,0,0,.5-.5A4.5,4.5,0,0,0,81.81,90Z" transform="translate(-71.49 -76.35)"/><path d="M98,81.27H90a.5.5,0,0,0-.5.5v1.5h-1v-3.6a3.38,3.38,0,0,0-3-3.31h-1a3.43,3.43,0,0,0-2,.94,3.34,3.34,0,0,0-1,2.37v3.6h-1v-1.5a.5.5,0,0,0-.5-.5H72a.5.5,0,0,0-.5.5v4a.5.5,0,0,0,.5.5h8a.5.5,0,0,0,.5-.5v-1.5h1V87.4a.5.5,0,0,0,.5.5h6a.5.5,0,0,0,.5-.5V84.25h1v1.5a.5.5,0,0,0,.5.5h8a.5.5,0,0,0,.5-.5v-4A.5.5,0,0,0,98,81.27Z" transform="translate(-71.49 -76.35)"/>
<style type="text/css">
	#Layer_1{fill:#fff;}
</style>
</svg>