<?xml version="1.0" encoding="utf-8"?>
<!-- Generator: Adobe Illustrator 21.0.0, SVG Export Plug-In . SVG Version: 6.00 Build 0)  -->
<svg version="1.1" id="Layer_1" xmlns="http://www.w3.org/2000/svg" xmlns:xlink="http://www.w3.org/1999/xlink" x="0px" y="0px"
	 viewBox="0 0 41.3 41.3" style="enable-background:new 0 0 41.3 41.3;" xml:space="preserve">
<g>
	<path d="M898.3,2843.3l-7.3,7.3v-3.6c0-0.6-0.4-1-1-1c-0.6,0-1,0.4-1,1v6c0,0.6,0.5,1,1,1h6c0.6,0,1-0.4,1-1c0-0.6-0.4-1-1-1h-3.6
		l7.3-7.3c0.4-0.4,0.4-1,0-1.4C899.3,2842.9,898.7,2842.9,898.3,2843.3z"/>
	<path d="M903.2,2848.2l7.8-7.8v3.6c0,0.6,0.4,1,1,1c0.6,0,1-0.4,1-1v-6c0-0.6-0.5-1-1-1h-6c-0.6,0-1,0.4-1,1c0,0.6,0.4,1,1,1h3.6
		l-7.8,7.8c-0.4,0.4-0.4,1,0,1.4C902.2,2848.6,902.8,2848.6,903.2,2848.2z"/>
</g>
<g>
	<path d="M21,26.4c0.4,0.4,1,0.4,1.4,0l4-4c0.4-0.4,0.4-1,0-1.4c-0.4-0.4-1-0.4-1.4,0l-2.3,2.3V9.7c0-0.6-0.4-1-1-1
		c-0.6,0-1,0.4-1,1v13.6L18.4,21c-0.4-0.4-1-0.4-1.4,0c-0.4,0.4-0.4,1,0,1.4L21,26.4z"/>
	<path d="M31.7,30.7h-22c-0.6,0-1,0.4-1,1c0,0.6,0.4,1,1,1h22c0.6,0,1-0.4,1-1C32.7,31.1,32.2,30.7,31.7,30.7z"/>
</g>
</svg>
