<svg id="Layer_1" data-name="Layer 1" xmlns="http://www.w3.org/2000/svg" viewBox="0 0 24 17.47"><title>aud_signal</title><circle cx="12" cy="8.75" r="0.98"/><path d="M74.5,85a10.47,10.47,0,0,1,3.09-7.46.75.75,0,1,0-1.06-1.06,12,12,0,0,0,0,17,.75.75,0,1,0,1.06-1.06A10.47,10.47,0,0,1,74.5,85Z" transform="translate(-73 -76.26)"/><path d="M78.5,85a6.57,6.57,0,0,1,1.94-4.68.75.75,0,1,0-1.06-1.06,8.11,8.11,0,0,0,0,11.48.75.75,0,1,0,1.06-1.06A6.57,6.57,0,0,1,78.5,85Z" transform="translate(-73 -76.26)"/><path d="M82.5,85a2.67,2.67,0,0,1,.79-1.9A.75.75,0,0,0,82.23,82a4.19,4.19,0,0,0,0,5.92.75.75,0,0,0,1.06-1.06A2.67,2.67,0,0,1,82.5,85Z" transform="translate(-73 -76.26)"/><path d="M95.5,85a10.47,10.47,0,0,0-3.09-7.46.75.75,0,1,1,1.06-1.06,12,12,0,0,1,0,17,.75.75,0,1,1-1.06-1.06A10.47,10.47,0,0,0,95.5,85Z" transform="translate(-73 -76.26)"/><path d="M91.5,85a6.57,6.57,0,0,0-1.94-4.68.75.75,0,1,1,1.06-1.06,8.11,8.11,0,0,1,0,11.48.75.75,0,1,1-1.06-1.06A6.57,6.57,0,0,0,91.5,85Z" transform="translate(-73 -76.26)"/><path d="M87.5,85a2.67,2.67,0,0,0-.79-1.9A.75.75,0,0,1,87.77,82a4.19,4.19,0,0,1,0,5.92.75.75,0,0,1-1.06-1.06A2.67,2.67,0,0,0,87.5,85Z" transform="translate(-73 -76.26)"/>
<style type="text/css">
	#Layer_1{fill:#fff;}
</style>
</svg>