<?xml version="1.0" encoding="utf-8"?>
<!-- Generator: Adobe Illustrator 21.0.0, SVG Export Plug-In . SVG Version: 6.00 Build 0)  -->
<svg version="1.1" id="Layer_1" xmlns="http://www.w3.org/2000/svg" xmlns:xlink="http://www.w3.org/1999/xlink" x="0px" y="0px"
	 viewBox="0 0 32.4 32.4" style="enable-background:new 0 0 32.4 32.4;" xml:space="preserve">
<style type="text/css">
	.st0{fill:#07D1EA;}
</style>
<path class="st0" d="M28.4,14.2h-2.9c-0.2-0.8-0.5-1.7-0.8-2.3l2-2c0.2-0.2,0.2-0.5,0-0.7l-2.8-2.8c-0.2-0.2-0.5-0.2-0.7,0l-2,2
	c-0.7-0.3-1.5-0.6-2.3-0.8V4.7c0-0.3-0.2-0.5-0.5-0.5h-3c-0.3,0-0.5,0.2-0.5,0.5v2.9c-0.8,0.2-1.7,0.5-2.3,0.8l-2-2
	c-0.2-0.2-0.5-0.2-0.7,0L7,9.1C6.8,9.3,6.8,9.7,7,9.8l2,2c-0.3,0.7-0.6,1.5-0.8,2.3H5.4c-0.3,0-0.5,0.2-0.5,0.5v3
	c0,0.3,0.2,0.5,0.5,0.5h2.9C8.4,19,8.7,19.9,9,20.5l-2,2c-0.2,0.2-0.2,0.5,0,0.7l2.8,2.8c0.2,0.2,0.5,0.2,0.7,0l2-2
	c0.7,0.3,1.5,0.6,2.3,0.8v2.9c0,0.3,0.2,0.5,0.5,0.5h3c0.3,0,0.5-0.2,0.5-0.5v-2.9c0.8-0.2,1.7-0.5,2.3-0.8l2,2
	c0.2,0.2,0.5,0.2,0.7,0l2.8-2.8c0.2-0.2,0.2-0.5,0-0.7l-2-2c0.3-0.7,0.6-1.5,0.8-2.3h2.9c0.3,0,0.5-0.2,0.5-0.5v-3
	C28.9,14.4,28.7,14.2,28.4,14.2z M16.9,20.2c-2.2,0-4-1.8-4-4s1.8-4,4-4s4,1.8,4,4S19.1,20.2,16.9,20.2z"/>
</svg>
