<svg id="Layer_1" data-name="Layer 1" xmlns="http://www.w3.org/2000/svg" viewBox="0 0 24 24"><defs><style>.cls-1{fill:#07d1ea;}</style></defs><title>gear_svg2</title><path class="cls-1" d="M28.38,14.21H25.52a12.84,12.84,0,0,0-.78-2.33l2-2a.5.5,0,0,0,0-.71L23.95,6.31a.5.5,0,0,0-.71,0l-2,2a12.77,12.77,0,0,0-2.33-.78V4.71a.5.5,0,0,0-.5-.5h-3a.5.5,0,0,0-.5.5V7.57a12.75,12.75,0,0,0-2.33.78l-2-2a.5.5,0,0,0-.71,0L7,9.14a.5.5,0,0,0,0,.71l2,2a12.89,12.89,0,0,0-.78,2.33H5.38a.5.5,0,0,0-.5.5v3a.5.5,0,0,0,.5.5H8.23A12.92,12.92,0,0,0,9,20.54l-2,2a.5.5,0,0,0,0,.71l2.83,2.83a.51.51,0,0,0,.71,0l2-2a12.91,12.91,0,0,0,2.33.78v2.85a.5.5,0,0,0,.5.5h3a.5.5,0,0,0,.5-.5V24.86a12.94,12.94,0,0,0,2.33-.78l2,2a.5.5,0,0,0,.71,0l2.83-2.83a.5.5,0,0,0,0-.71l-2-2a12.88,12.88,0,0,0,.78-2.33h2.86a.5.5,0,0,0,.5-.5v-3A.5.5,0,0,0,28.38,14.21Zm-11.5,6a4,4,0,1,1,4-4A4,4,0,0,1,16.88,20.21Z" transform="translate(-4.88 -4.21)"/></svg>