<?xml version="1.0" encoding="utf-8"?>
<!-- Generator: Adobe Illustrator 19.2.1, SVG Export Plug-In . SVG Version: 6.00 Build 0)  -->
<svg version="1.1" xmlns="http://www.w3.org/2000/svg" xmlns:xlink="http://www.w3.org/1999/xlink" x="0px" y="0px" width="24px"
	 height="24px" viewBox="0 0 24 24" enable-background="new 0 0 24 24" xml:space="preserve">
	 	<style type="text/css">
	#Filled_Icons{fill:#000000;}
</style>

<g id="Filled_Icons_1_">
	<g id="Filled_Icons">
		<g>
	
			<path d="M23,3h-7v-2.5c0-0.275-0.224-0.5-0.5-0.5h-8c-0.276,0-0.5,0.225-0.5,0.5V3H1C0.724,3,0.5,3.225,0.5,3.5
				c0,0.276,0.224,0.5,0.5,0.5h2v19.5C3,23.777,3.224,24,3.5,24h16c0.276,0,0.5-0.224,0.5-0.5v-19.5h3c0.276,0,0.5-0.224,0.5-0.5
				C23.5,3.225,23.276,3,23,3z M8,18.5C8,18.777,7.776,19,7.5,19S7,18.777,7,18.5v-11c0-0.275,0.224-0.5,0.5-0.5S8,7.225,8,7.501
				V18.5z M8,1h7v2H8V1z M12,18.5c0,0.276-0.224,0.5-0.5,0.5S11,18.777,11,18.5v-11c0-0.275,0.224-0.5,0.5-0.5s0.5,0.225,0.5,0.5
				V18.5z M16,18.5c0,0.276-0.224,0.5-0.5,0.5S15,18.777,15,18.5v-11c0-0.275,0.224-0.5,0.5-0.5s0.5,0.225,0.5,0.5V18.5z"/>
		</g>
	</g>
	<g id="New_icons">
	</g>
</g>
<g id="Frames-24px">
	<rect fill="none" width="24" height="24"/>
</g>
</svg>
