<?xml version="1.0" encoding="utf-8"?>
<!-- Generator: Adobe Illustrator 19.2.1, SVG Export Plug-In . SVG Version: 6.00 Build 0)  -->
<svg version="1.1" id="Layer_1" xmlns="http://www.w3.org/2000/svg" xmlns:xlink="http://www.w3.org/1999/xlink" x="0px" y="0px"
	 viewBox="0 0 360 360" style="enable-background:new 0 0 360 360;" xml:space="preserve">
<style type="text/css">
	.st0{fill:none;stroke:#000000;stroke-width:3.5933;stroke-linecap:round;stroke-linejoin:round;stroke-miterlimit:10;}
	.st1{fill:none;stroke:#000000;stroke-width:4.1449;stroke-linecap:round;stroke-linejoin:round;stroke-miterlimit:10;}
	.st2{fill:none;stroke:#000000;stroke-width:4.9414;stroke-linecap:round;stroke-linejoin:round;stroke-miterlimit:10;}
	.st3{fill:none;stroke:#000000;stroke-width:4.5193;stroke-linecap:round;stroke-linejoin:round;stroke-miterlimit:10;}
	.st4{fill:none;stroke:#000000;stroke-width:4.7691;stroke-linecap:round;stroke-linejoin:round;stroke-miterlimit:10;}
	.st5{fill:none;stroke:#000000;stroke-width:5.5583;stroke-linecap:round;stroke-linejoin:round;stroke-miterlimit:10;}
</style>
<path d="M252.8,190.2C252.8,190.2,252.8,190.2,252.8,190.2l-40.2-37l24.1-46.7c1-2,0.7-4.3-0.7-5.7l-9.2-8.5
	c-1.5-1.4-3.8-1.5-5.7-0.3l-44.6,27.8l-40.2-37.1c-0.8-0.7-1.8-1-2.9-0.8c-0.8,0.2-1.6,0.6-2.2,1.3l-0.5,0.5
	c-3,3.3-3.6,7.8-1.3,10.5c1,1.2,1.1,3.1,0.4,5c0,0.1-0.1,0.2-0.1,0.3l-6.9,32.6c-1.3,6.1,0.3,11.8,4.1,15.4l16.9,15.6
	c-2.6,3.6-4.1,8-4.1,12.5c0,4.1,1.2,8.1,3.4,11.5l-12.9,66.3h-5.9c-3.1,0-5.6,2.3-6.1,5.2h-5.4c-3.6,0-6.6,2.9-6.6,6.6v10.7
	c0,1.4,1.1,2.5,2.5,2.5h103.2c1.4,0,2.5-1.1,2.5-2.5v-10.7c0-3.6-2.9-6.6-6.6-6.6h-15.3c-0.4-3-3-5.2-6.1-5.2H181l-12.3-58.1
	c2.1-0.9,4.1-2.1,5.9-3.6l14.4,13.2c3.9,3.6,9.7,4.7,15.7,2.9l32-9.5c0.1,0,0.2-0.1,0.3-0.1c1.9-0.9,3.8-0.8,5,0
	c2.9,2,7.4,1.1,10.4-2.2l0.3-0.4C254.2,193.9,254.3,191.5,252.8,190.2z M200.1,141.6l-0.7-0.7l0,0l-10.4-9.6l17.9-13.7l5.5,5
	L200.1,141.6z"/>
</svg>
