<?xml version="1.0" encoding="UTF-8" standalone="no"?>
<!-- Generator: Adobe Illustrator 16.0.3, SVG Export Plug-In . SVG Version: 6.00 Build 0)  -->

<svg
   xmlns:dc="http://purl.org/dc/elements/1.1/"
   xmlns:cc="http://creativecommons.org/ns#"
   xmlns:rdf="http://www.w3.org/1999/02/22-rdf-syntax-ns#"
   xmlns:svg="http://www.w3.org/2000/svg"
   xmlns="http://www.w3.org/2000/svg"
   xmlns:sodipodi="http://sodipodi.sourceforge.net/DTD/sodipodi-0.dtd"
   xmlns:inkscape="http://www.inkscape.org/namespaces/inkscape"
   version="1.1"
   x="0px"
   y="0px"
   width="24px"
   height="24px"
   viewBox="0 0 24 24"
   enable-background="new 0 0 24 24"
   xml:space="preserve"
   id="svg2"
   inkscape:version="0.91 r13725"
   sodipodi:docname="cog.3.3.1-modified.svg"><metadata
     id="metadata20"><rdf:RDF><cc:Work
         rdf:about=""><dc:format>image/svg+xml</dc:format><dc:type
           rdf:resource="http://purl.org/dc/dcmitype/StillImage" /><dc:title></dc:title></cc:Work></rdf:RDF></metadata><defs
     id="defs18" /><sodipodi:namedview
     pagecolor="#ffffff"
     bordercolor="#666666"
     borderopacity="1"
     objecttolerance="10"
     gridtolerance="10"
     guidetolerance="10"
     inkscape:pageopacity="0"
     inkscape:pageshadow="2"
     inkscape:window-width="640"
     inkscape:window-height="480"
     id="namedview16"
     showgrid="false"
     inkscape:zoom="9.8333333"
     inkscape:cx="18.390193"
     inkscape:cy="12"
     inkscape:window-x="0"
     inkscape:window-y="0"
     inkscape:window-maximized="0"
     inkscape:current-layer="svg2" /><g
     id="Outline_Icons_1_"><g
       id="Outline_Icons"><g
         id="g6"><path
           fill="#07D1EA"
           stroke="#07D1EA"
           stroke-linecap="round"
           stroke-linejoin="round"
           stroke-miterlimit="10"
           d="M20.254,13.5H23.5     v-3h-3.247c-0.209-0.867-0.551-2.181-1.003-2.922l2.296-2.295l-2.829-2.829L16.42,4.75c-0.74-0.452-2.053-0.793-2.92-1.002V0.5     h-3v3.248C9.633,3.957,8.319,4.298,7.579,4.75L5.282,2.454L2.453,5.283L4.75,7.579C4.298,8.319,3.956,9.633,3.746,10.5H0.5v3     h3.246c0.21,0.867,0.552,2.181,1.004,2.921l-2.297,2.297l2.829,2.828l2.296-2.297c0.741,0.454,2.055,0.795,2.922,1.005V23.5h3     v-3.246c0.867-0.21,2.181-0.552,2.92-1.004l2.298,2.296l2.828-2.828l-2.296-2.297C19.702,15.681,20.044,14.367,20.254,13.5z"
           id="path8" /><circle
           fill="black"
           stroke="#07D1EA"
           stroke-linecap="round"
           stroke-linejoin="round"
           stroke-miterlimit="10"
           cx="12"
           cy="12"
           r="4.5"
           id="circle10" /></g></g><g
       id="New_icons_1_" /></g><g
     id="Invisible_Shape"><rect
       fill="none"
       width="24"
       height="24"
       id="rect14" /></g></svg>