<?xml version="1.0" encoding="utf-8"?>
<!-- Generator: Adobe Illustrator 19.2.1, SVG Export Plug-In . SVG Version: 6.00 Build 0)  -->
<svg version="1.1" xmlns="http://www.w3.org/2000/svg" xmlns:xlink="http://www.w3.org/1999/xlink" x="0px" y="0px" width="24px"
	 height="24px" viewBox="0 0 24 24" enable-background="new 0 0 24 24" xml:space="preserve">
<style type="text/css">
	#Filled_Icons_save{fill:#07D1EA;}
</style>
<g id="Filled_Icons_1_">
	<g id="Filled_Icons_save">
		<g>
			<path d="M18.999,11.006l-3,0.001V0.506c0-0.275-0.224-0.5-0.5-0.5h-7c-0.275,0-0.5,0.225-0.5,0.5v10.5h-3
				c-0.44,0-0.668,0.538-0.353,0.854l7,6.999c0.188,0.188,0.519,0.188,0.707,0l7-6.999C19.669,11.544,19.442,11.006,18.999,11.006z"
				/>
			<path d="M23,17.5c-0.553,0-1,0.447-1,1V22H2v-3.5c0-0.553-0.448-1-1-1c-0.553,0-1,0.447-1,1V23c0,0.552,0.447,1,1,1h22
				c0.552,0,1-0.448,1-1v-4.5C24,17.947,23.552,17.5,23,17.5z"/>
		</g>
	</g>
	<g id="New_icons">
	</g>
</g>
<g id="Invisible_Shape">
	<rect fill="none" width="24" height="24"/>
</g>
</svg>
