<svg id="Layer_1" data-name="Layer 1" xmlns="http://www.w3.org/2000/svg" viewBox="0 0 41.33 41.33"><title>aud_lineplot_control_home</title><path d="M39.34,2V39.33H2V2H39.33m2-2H0V41.33H41.33Z"/><path d="M28.81,15.52a.5.5,0,0,0,.85-.35v-4.5a.5.5,0,0,0-.5-.5H24.67a.5.5,0,0,0-.35.85Z"/><polygon points="11.65 20.78 11.65 32.15 18.66 32.15 18.66 25.15 22.66 25.15 22.66 32.15 29.66 32.15 29.66 20.78 20.66 11.78 11.65 20.78"/><path d="M32.52,20.83h0L21,9.33a.51.51,0,0,0-.71,0L8.81,20.83a.5.5,0,0,0,.7.71h0L20.67,10.38,31.82,21.52h0a.5.5,0,0,0,.69,0h0A.49.49,0,0,0,32.52,20.83Z"/></svg>