<?xml version="1.0" encoding="utf-8"?>
<!-- Generator: Adobe Illustrator 21.0.0, SVG Export Plug-In . SVG Version: 6.00 Build 0)  -->
<svg version="1.1" id="Layer_1" xmlns="http://www.w3.org/2000/svg" xmlns:xlink="http://www.w3.org/1999/xlink" x="0px" y="0px"
	 viewBox="0 0 41.3 41.3" style="enable-background:new 0 0 41.3 41.3;" xml:space="preserve">
<style type="text/css">
	.st0{fill:#020613;}
	.st1{fill:#FFFFFF;}
</style>
<path class="st0" d="M41.3,0H0v41.3h41.3V0L41.3,0z"/>
<g>
	<path class="st1" d="M19.2,8.7h-5c-0.3,0-0.5,0.2-0.5,0.5v23c0,0.3,0.2,0.5,0.5,0.5h5c0.3,0,0.5-0.2,0.5-0.5v-23
		C19.7,8.9,19.4,8.7,19.2,8.7z"/>
	<path class="st1" d="M27.2,8.7h-5c-0.3,0-0.5,0.2-0.5,0.5v23c0,0.3,0.2,0.5,0.5,0.5h5c0.3,0,0.5-0.2,0.5-0.5v-23
		C27.7,8.9,27.4,8.7,27.2,8.7z"/>
</g>
</svg>
