<?xml version="1.0" encoding="utf-8"?>
<!-- Generator: Adobe Illustrator 21.0.0, SVG Export Plug-In . SVG Version: 6.00 Build 0)  -->
<svg version="1.1" id="Layer_1" xmlns="http://www.w3.org/2000/svg" xmlns:xlink="http://www.w3.org/1999/xlink" x="0px" y="0px"
	 viewBox="0 0 87.6 41.3" style="enable-background:new 0 0 87.6 41.3;" xml:space="preserve">
<style type="text/css">
	.st0{fill:#787982;}
</style>
<path class="st0" d="M0,0v41.3h87.6V0H0z M23.8,30.9H11.6V11.2h4.2v16.3h8V30.9z M34.2,30.9H30V11.2h4.2V30.9z M50.7,30.9h-4.6
	l-6.7-19.8h4.2l3.7,11.8c0.2,0.7,0.4,1.5,0.6,2.4c0.2,0.9,0.4,1.6,0.4,1.9c0.1-0.8,0.4-2.3,1-4.4l3.7-11.8h4.2L50.7,30.9z
	 M74.1,14.6h-7.2v4.3h6.7v3.4h-6.7v5.1h7.2v3.5H62.7V11.2h11.4V14.6z"/>
</svg>
