<svg id="Layer_1" data-name="Layer 1" xmlns="http://www.w3.org/2000/svg" viewBox="0 0 29.49 19.68"><title>data_table_cat_VALUE</title><rect x="12.74" width="4" height="19.68"/><path d="M140.3,154.28a.5.5,0,0,1-.5-.5V146.1a.5.5,0,0,1,1,0v7.67A.5.5,0,0,1,140.3,154.28Z" transform="translate(-135.76 -140.1)"/><path d="M144.9,154.28a.5.5,0,0,1-.5-.5V146.1a.5.5,0,0,1,1,0v7.67A.5.5,0,0,1,144.9,154.28Z" transform="translate(-135.76 -140.1)"/><path d="M156.1,154.28a.5.5,0,0,1-.5-.5V146.1a.5.5,0,0,1,1,0v7.67A.5.5,0,0,1,156.1,154.28Z" transform="translate(-135.76 -140.1)"/><path d="M160.7,154.28a.5.5,0,0,1-.5-.5V146.1a.5.5,0,0,1,1,0v7.67A.5.5,0,0,1,160.7,154.28Z" transform="translate(-135.76 -140.1)"/><path d="M165.24,156.92H135.76V143h29.49Zm-28.49-1h27.49V144H136.76Z" transform="translate(-135.76 -140.1)"/></svg>