<svg id="Layer_1" data-name="Layer 1" xmlns="http://www.w3.org/2000/svg" viewBox="0 0 29.49 19.68"><title>data_table_cat_WARNLOW</title><rect x="8.14" width="4" height="19.68"/><path d="M140.3,154.34a.5.5,0,0,1-.5-.5v-7.67a.5.5,0,0,1,1,0v7.67A.5.5,0,0,1,140.3,154.34Z" transform="translate(-135.76 -140.16)"/><path d="M151.5,154.34a.5.5,0,0,1-.5-.5v-7.67a.5.5,0,0,1,1,0v7.67A.5.5,0,0,1,151.5,154.34Z" transform="translate(-135.76 -140.16)"/><path d="M156.1,154.34a.5.5,0,0,1-.5-.5v-7.67a.5.5,0,0,1,1,0v7.67A.5.5,0,0,1,156.1,154.34Z" transform="translate(-135.76 -140.16)"/><path d="M160.7,154.34a.5.5,0,0,1-.5-.5v-7.67a.5.5,0,0,1,1,0v7.67A.5.5,0,0,1,160.7,154.34Z" transform="translate(-135.76 -140.16)"/><path d="M165.24,157H135.76V143h29.49Zm-28.49-1h27.49V144H136.76Z" transform="translate(-135.76 -140.16)"/></svg>