<?xml version="1.0" encoding="utf-8"?>
<!-- Generator: Adobe Illustrator 21.0.0, SVG Export Plug-In . SVG Version: 6.00 Build 0)  -->
<svg version="1.1" id="Layer_1" xmlns="http://www.w3.org/2000/svg" xmlns:xlink="http://www.w3.org/1999/xlink" x="0px" y="0px"
	 viewBox="0 0 41.3 41.3" style="enable-background:new 0 0 41.3 41.3;" xml:space="preserve">
<style type="text/css">
	.st0{fill:#000000;}
	.st1{fill:#ffffff;}
</style>
<path class="st1" d="M39.3,2v37.3H2V2H39.3 M41.3,0H0v41.3h41.3V0L41.3,0z"/>
<g>
	<path class="st0" d="M30,14.7c0.2,0.2,0.6,0.2,0.8,0c0.1-0.1,0.1-0.2,0.1-0.3V9.1c0-0.3-0.2-0.6-0.6-0.6h-5.2
		c-0.3,0-0.6,0.2-0.6,0.6c0,0.1,0.1,0.3,0.1,0.3L30,14.7z"/>
	<polygon class="st0" points="10.3,20.8 10.3,33.9 18.4,33.9 18.4,25.9 23,25.9 23,33.9 31.1,33.9 31.1,20.8 20.7,10.4 	"/>
	<path class="st0" d="M34.3,20.8L34.3,20.8L21,7.5c-0.2-0.2-0.6-0.2-0.8,0L7,20.8c-0.2,0.2-0.2,0.6,0,0.8c0.2,0.2,0.6,0.2,0.8,0l0,0
		L20.7,8.7l12.9,12.8l0,0c0.2,0.2,0.6,0.2,0.8,0l0,0C34.5,21.4,34.5,21,34.3,20.8z"/>
</g>
</svg>
