<?xml version="1.0" encoding="iso-8859-1"?>
<!-- Generator: Adobe Illustrator 19.0.0, SVG Export Plug-In . SVG Version: 6.00 Build 0)  -->
<svg version="1.1" id="Layer_1" xmlns="http://www.w3.org/2000/svg" xmlns:xlink="http://www.w3.org/1999/xlink" x="0px" y="0px"
	 viewBox="0 0 512.057 512.057" style="enable-background:new 0 0 512.057 512.057;" xml:space="preserve">
<circle style="fill:#464954;" cx="256.028" cy="256.028" r="256.028"/>
<g>
	<polygon style="fill:#6B7F9E;" points="215.645,247.294 247.521,216.779 310.308,282.232 278.432,312.804 	"/>
	<path style="fill:#6B7F9E;" d="M222.224,254.157l31.876-30.515c2.496-2.382,6.523-2.325,8.905,0.17l32.5,33.918
		c2.382,2.496,2.325,6.523-0.17,8.905l-31.876,30.515c-2.496,2.382-6.523,2.325-8.905-0.17l-32.5-33.918
		C219.672,260.566,219.728,256.539,222.224,254.157z"/>
</g>
<g>
	<polygon style="fill:#FFE356;" points="228.066,258.751 259.148,291.081 289.436,262.041 258.411,229.654 	"/>
	<polygon style="fill:#FFE356;" points="221.26,242.019 241.962,222.111 238.956,218.934 218.197,238.843 	"/>
	<path style="fill:#FFE356;" d="M209.632,209.122c2.155-2.099,5.615-1.985,7.657,0.17c1.758,1.872,1.985,4.651,0.624,6.693
		l11.514,12.024l-1.815,1.758l-11.514-12.024c-2.099,1.248-4.878,0.908-6.636-0.907c-2.099-2.155-1.985-5.615,0.17-7.657V209.122z"
		/>
	<polygon style="fill:#FFE356;" points="277.355,238.786 284.615,231.809 288.358,235.78 281.098,242.756 	"/>
</g>
<polygon style="fill:#8597B1;" points="256.879,209.973 388.467,83.774 440.648,138.224 309.06,264.366 "/>
<g>
	<polygon style="fill:#FFE356;" points="278.432,312.804 310.308,282.232 319.27,287.337 283.424,321.709 	"/>
	<polygon style="fill:#FFE356;" points="236.404,278.035 229.144,285.012 232.944,288.925 240.204,282.006 	"/>
</g>
<polygon style="fill:#8597B1;" points="208.441,256.369 76.854,382.511 129.035,436.961 260.623,310.819 "/>
<polygon style="fill:#CED4DB;" points="264.763,205.662 287.167,184.166 310.308,208.271 287.904,229.824 "/>
<polygon style="fill:#FFFFFF;" points="267.542,205.605 286.997,187.002 307.529,208.385 288.074,226.988 "/>
<polygon style="fill:#CED4DB;" points="289.152,182.861 311.613,161.365 334.754,185.47 312.293,206.967 "/>
<polygon style="fill:#FFFFFF;" points="291.988,182.748 311.386,164.144 331.918,185.584 312.52,204.187 "/>
<polygon style="fill:#CED4DB;" points="313.598,160.06 336.002,138.564 359.2,162.669 336.739,184.166 "/>
<polygon style="fill:#FFFFFF;" points="316.434,159.947 335.832,141.343 356.364,162.726 336.909,181.387 "/>
<polygon style="fill:#CED4DB;" points="338.044,137.203 360.448,115.706 383.589,139.868 361.185,161.365 "/>
<polygon style="fill:#FFFFFF;" points="340.823,137.146 360.277,118.542 380.81,139.925 361.355,158.529 "/>
<polygon style="fill:#CED4DB;" points="362.433,114.402 384.893,92.905 408.035,117.011 385.574,138.507 "/>
<polygon style="fill:#FFFFFF;" points="365.269,114.345 384.666,95.685 405.199,117.124 385.801,135.728 "/>
<polygon style="fill:#CED4DB;" points="289.492,231.129 311.953,209.632 335.094,233.738 312.634,255.234 "/>
<polygon style="fill:#E4E7ED;" points="292.328,231.072 311.726,212.412 332.258,233.851 312.861,252.455 "/>
<polygon style="fill:#CED4DB;" points="313.938,208.328 336.342,186.832 359.54,210.937 337.079,232.433 "/>
<polygon style="fill:#E4E7ED;" points="316.774,208.214 336.172,189.611 356.704,210.994 337.306,229.654 "/>
<polygon style="fill:#CED4DB;" points="338.384,185.527 360.788,164.031 383.929,188.136 361.525,209.632 "/>
<polygon style="fill:#E4E7ED;" points="341.163,185.414 360.618,166.81 381.15,188.193 361.695,206.796 "/>
<polygon style="fill:#CED4DB;" points="362.773,162.669 385.234,141.173 408.375,165.278 385.914,186.775 "/>
<polygon style="fill:#E4E7ED;" points="365.609,162.613 385.007,144.009 405.539,165.392 386.141,183.996 "/>
<polygon style="fill:#CED4DB;" points="387.219,139.868 409.623,118.372 432.821,142.477 410.36,163.974 "/>
<polygon style="fill:#E4E7ED;" points="390.055,139.755 409.453,121.151 429.985,142.591 410.53,161.195 "/>
<polygon style="fill:#CED4DB;" points="84.738,378.257 107.142,356.761 130.283,380.866 107.879,402.363 "/>
<polygon style="fill:#FFFFFF;" points="87.517,378.201 106.972,359.54 127.504,380.98 108.049,399.583 "/>
<polygon style="fill:#CED4DB;" points="109.127,355.456 131.587,333.96 154.729,358.065 132.268,379.562 "/>
<polygon style="fill:#FFFFFF;" points="111.963,355.343 131.361,336.739 151.893,358.122 132.495,376.783 "/>
<polygon style="fill:#CED4DB;" points="133.573,332.655 155.977,311.159 179.174,335.264 156.714,356.761 "/>
<polygon style="fill:#FFFFFF;" points="136.409,332.542 155.806,313.938 176.339,335.321 156.884,353.925 "/>
<polygon style="fill:#CED4DB;" points="158.018,309.798 180.422,288.301 203.564,312.407 181.16,333.903 "/>
<polygon style="fill:#FFFFFF;" points="160.798,309.741 180.252,291.137 200.784,312.52 181.33,331.124 "/>
<polygon style="fill:#CED4DB;" points="182.407,286.997 204.868,265.5 228.009,289.606 205.549,311.102 "/>
<polygon style="fill:#FFFFFF;" points="185.243,286.883 204.641,268.28 225.173,289.719 205.776,308.323 "/>
<polygon style="fill:#CED4DB;" points="109.467,403.724 131.928,382.228 155.069,406.333 132.608,427.829 "/>
<polygon style="fill:#E4E7ED;" points="112.303,403.611 131.701,385.007 152.233,406.446 132.835,425.05 "/>
<polygon style="fill:#CED4DB;" points="133.913,380.923 156.317,359.427 179.515,383.532 157.054,405.028 "/>
<polygon style="fill:#E4E7ED;" points="136.749,380.81 156.147,362.206 176.679,383.589 157.224,402.249 "/>
<polygon style="fill:#CED4DB;" points="158.359,358.065 180.763,336.569 203.904,360.674 181.5,382.228 "/>
<polygon style="fill:#E4E7ED;" points="161.138,358.009 180.592,339.405 201.125,360.788 181.67,379.392 "/>
<polygon style="fill:#CED4DB;" points="182.748,335.264 205.208,313.768 228.35,337.874 205.889,359.37 "/>
<polygon style="fill:#E4E7ED;" points="185.584,335.208 204.982,316.547 225.514,337.987 206.116,356.591 "/>
<polygon style="fill:#CED4DB;" points="207.194,312.464 229.597,290.967 252.795,315.073 230.335,336.569 "/>
<polygon style="fill:#E4E7ED;" points="210.029,312.35 229.427,293.746 249.959,315.129 230.505,333.79 "/>
<path style="fill:#FEFEFE;" d="M213.206,191.029c1.134,0,2.269,0.113,3.403,0.284l-0.794,5.161c-0.851-0.113-1.702-0.17-2.552-0.17
	c-4.594,0-8.735,1.872-11.684,4.821c-2.552,2.552-4.311,5.955-4.708,9.756l-5.218-0.624c0.567-4.991,2.836-9.472,6.239-12.875l0,0
	c3.97-3.914,9.359-6.353,15.371-6.353H213.206z M234.986,74.245l-0.794,5.161c-6.806-1.078-13.839-1.645-20.929-1.645
	c-37.264,0-71.069,15.144-95.458,39.533c-20.929,20.929-35.052,48.778-38.625,79.803l-5.218-0.624
	c3.743-32.216,18.377-61.143,40.157-82.866c25.41-25.41,60.462-41.064,99.201-41.064c7.373,0,14.69,0.567,21.78,1.702H234.986z
	 M231.186,98.294l-0.794,5.161c-5.615-0.851-11.344-1.305-17.186-1.305c-30.571,0-58.25,12.365-78.272,32.443
	c-17.186,17.186-28.756,39.987-31.706,65.397l-5.218-0.624c3.063-26.658,15.201-50.536,33.18-68.516
	c20.986-20.986,49.969-33.975,81.959-33.975c6.126,0,12.138,0.454,17.98,1.361L231.186,98.294z M227.669,120.811l-0.794,5.161
	c-4.424-0.681-9.018-1.078-13.613-1.078c-24.276,0-46.226,9.812-62.164,25.75c-13.613,13.612-22.801,31.762-25.126,51.898
	l-5.218-0.624c2.496-21.383,12.195-40.554,26.658-55.017c16.845-16.845,40.157-27.282,65.85-27.282
	c4.935,0,9.756,0.397,14.463,1.134L227.669,120.811z M224.549,140.776l-0.794,5.161c-3.403-0.51-6.92-0.794-10.493-0.794
	c-18.66,0-35.619,7.544-47.814,19.795c-10.493,10.493-17.583,24.446-19.341,39.987l-5.218-0.624
	c1.928-16.732,9.529-31.762,20.872-43.05c13.215-13.215,31.422-21.326,51.557-21.326c3.857,0,7.6,0.284,11.287,0.851H224.549z
	 M221.6,159.55l-0.794,5.161c-2.439-0.397-4.991-0.567-7.544-0.567c-13.442,0-25.58,5.445-34.372,14.236
	c-7.544,7.544-12.648,17.583-13.896,28.756l-5.218-0.624c1.418-12.365,7.033-23.482,15.427-31.819
	c9.756-9.756,23.198-15.768,38.115-15.768c2.836,0,5.615,0.227,8.338,0.624H221.6z M219.048,175.942l-0.794,5.161
	c-1.645-0.227-3.29-0.397-4.991-0.397c-8.848,0-16.845,3.573-22.688,9.415c-4.991,4.991-8.338,11.571-9.188,18.944l-5.218-0.624
	c0.964-8.565,4.878-16.278,10.663-22.064c6.75-6.75,16.051-10.947,26.374-10.947c1.985,0,3.914,0.17,5.785,0.454L219.048,175.942z"
	/>
<g>
</g>
<g>
</g>
<g>
</g>
<g>
</g>
<g>
</g>
<g>
</g>
<g>
</g>
<g>
</g>
<g>
</g>
<g>
</g>
<g>
</g>
<g>
</g>
<g>
</g>
<g>
</g>
<g>
</g>
</svg>
